<svg width="235" height="95" viewBox="0 0 235 95" fill="none" xmlns="http://www.w3.org/2000/svg">
<path d="M112.5 47.5C112.5 21.2665 91.2335 0 65 0C38.7665 0 17.5 21.2665 17.5 47.5C17.5 73.7335 38.7665 95 65 95C91.2335 95 112.5 73.7335 112.5 47.5Z" fill="#CC444B"/>
<path d="M64.25 47.5L73.8333 37.9167L70.9167 35L58.4167 47.5L70.9167 60L73.8333 57.0833L64.25 47.5Z" fill="white"/>
<path d="M122.5 47.5C122.5 21.2665 143.766 0 170 0C196.234 0 217.5 21.2665 217.5 47.5C217.5 73.7335 196.234 95 170 95C143.766 95 122.5 73.7335 122.5 47.5Z" fill="#CC444B"/>
<path d="M170.75 47.5L161.167 37.9167L164.083 35L176.583 47.5L164.083 60L161.167 57.0833L170.75 47.5Z" fill="white"/>
<path d="M103.039 47.5C103.039 54.5873 101.13 61.2332 97.7889 66.9547C97.6633 67.1712 97.5293 67.3877 97.3953 67.6043C97.0855 68.1206 96.7589 68.637 96.4156 69.1367C96.2732 69.3449 96.1309 69.5531 95.9718 69.7613C90.8804 77.0151 83.3439 82.4285 74.568 84.8853C74.3837 84.9353 74.1911 84.9852 74.0069 85.0352C70.8164 85.8764 67.4585 86.3261 64 86.3261C50.5096 86.3261 38.6102 79.5219 31.618 69.17C30.9564 68.2122 30.3451 67.2128 29.7841 66.1968C26.7108 60.6502 24.9607 54.2791 24.9607 47.5C24.9607 26.0548 42.4371 8.67383 64 8.67383C85.5629 8.67383 103.039 26.0548 103.039 47.5Z" fill="#EDDDD6"/>
<path d="M47.2647 42.2082C47.2647 42.2082 43.0819 20.1393 59.3198 16.0993C75.5578 12.0593 76.535 34.9793 76.535 34.9793C76.535 34.9793 94.2057 38.3231 94.3213 55.4126C94.4653 76.7711 73.7088 73.1809 73.7088 73.1809L54.0493 65.2174C54.0493 65.2174 34.3579 54.5523 47.2647 42.2082Z" fill="black"/>
<path d="M95.9718 69.7613C90.8805 77.0152 83.3439 82.4285 74.568 84.8854C74.3838 84.9353 74.1912 84.9853 74.007 85.0353C70.8165 85.8764 67.4585 86.3261 64.0001 86.3261C50.5097 86.3261 38.6103 79.522 31.618 69.17C36.8601 62.0411 43.4337 56.6444 47.9054 54.7289C54.5208 51.8973 65.0134 49.9985 74.702 52.7551C74.7271 52.7634 74.7606 52.7634 74.7941 52.7718C77.7083 53.6046 80.5387 54.8538 83.1764 56.6277C88.8791 60.4587 93.0326 64.906 95.9718 69.7613Z" fill="#F7734F"/>
<path d="M56.332 46.0534L56.3337 46.2891L56.533 50.7364L56.6754 54.2234C56.6754 54.2234 56.3756 55.0346 60.4579 54.7714C65.9277 54.3983 67.6913 52.0606 67.6913 52.0606L67.9241 43.8864L66.2661 44.2004L56.332 46.0534Z" fill="#FCA397"/>
<path d="M56.3329 46.2891L56.5322 50.7364C59.1901 50.4149 64.0285 49.2706 65.9822 45.1123C66.1329 44.7742 66.2317 44.4702 66.2644 44.217L56.3488 46.2208L56.3329 46.2891Z" fill="black"/>
<path d="M54.5995 25.0038C54.5995 25.0038 49.5124 36.5834 51.3454 43.0894C53.1785 49.5945 59.1382 48.571 62.7038 47.3134C66.2695 46.0559 67.925 43.8814 67.925 43.8814C67.925 43.8814 71.2562 45.0049 73.4836 41.9243C75.7119 38.8437 74.3403 35.3058 72.4377 34.4955C70.536 33.6852 68.2742 35.051 68.2742 35.051L70.047 31.6856C70.047 31.6856 62.5883 14.5819 54.5995 25.0038Z" fill="#FCA397"/>
<path d="M56.1779 23.289C56.1779 23.289 55.8095 29.4502 62.0414 32.2501C68.2733 35.0501 72.4368 34.4946 72.4368 34.4946L72.0323 26.4595L64.2312 18.0322L57.2574 20.2425L56.1779 23.289Z" fill="black"/>
<path d="M67.8521 33.2729L67.8755 36.7808L71.0132 33.7035L67.8521 33.2729Z" fill="black"/>
<path d="M97.3954 67.6043C97.0856 68.1206 96.759 68.637 96.4156 69.1367C96.2733 69.3449 96.1309 69.5531 95.9718 69.7613C90.8805 77.0152 83.3439 82.4285 74.568 84.8853C74.3838 84.9353 74.1912 84.9853 74.007 85.0352L74.5429 52.7301C74.5429 52.7301 74.6015 52.7384 74.702 52.7551C74.7271 52.7634 74.7606 52.7634 74.7941 52.7717C76.7201 53.0965 89.3397 55.5784 96.1142 65.4556C96.5747 66.1135 96.9934 66.8381 97.3954 67.6043Z" fill="#F7734F"/>
<path d="M59.2805 55.2511C56.8153 55.2511 54.978 54.8139 54.8248 54.7756C54.6003 54.7206 54.4638 54.4949 54.5191 54.2717C54.5744 54.0485 54.803 53.9128 55.0257 53.9669C55.1003 53.9852 62.4802 55.7366 67.5473 52.0631C67.734 51.929 67.9953 51.9689 68.1326 52.1547C68.2691 52.3404 68.2273 52.6011 68.0405 52.7368C65.2604 54.7522 61.9125 55.2511 59.2805 55.2511Z" fill="#7772D3"/>
<path d="M53.1525 29.2329C52.9741 29.2329 52.8092 29.1188 52.7531 28.9405C52.6835 28.7207 52.8066 28.4875 53.0277 28.4192L55.3481 27.698C55.5701 27.6288 55.8037 27.7504 55.8724 27.9711C55.9419 28.191 55.8188 28.4242 55.5977 28.4925L53.2773 29.2137C53.2362 29.2262 53.1944 29.2329 53.1525 29.2329Z" fill="black"/>
<path d="M68.5119 40.4544C68.3989 40.4544 68.2858 40.4094 68.2038 40.3195C68.048 40.1504 68.0581 39.8864 68.2289 39.7315L71.8188 36.4469C71.9888 36.2911 72.2542 36.3028 72.4108 36.4718C72.5666 36.6409 72.5566 36.9049 72.3857 37.0606L68.7958 40.3453C68.7146 40.4177 68.6133 40.4544 68.5119 40.4544Z" fill="black"/>
<path d="M72.1479 40.0221C72.0918 40.0221 72.0349 40.0104 71.9796 39.9871L69.8375 39.0519C69.6257 38.9594 69.5294 38.7137 69.6223 38.503C69.7153 38.2932 69.9623 38.1966 70.1742 38.289L72.3162 39.2243C72.5281 39.3167 72.6244 39.5624 72.5314 39.7731C72.4628 39.9297 72.3087 40.0221 72.1479 40.0221Z" fill="black"/>
<path d="M53.87 35.0735C53.8416 35.0735 53.8131 35.071 53.7846 35.0651C53.5585 35.0185 53.4128 34.7978 53.4597 34.5729L53.8876 32.5234L53.0461 31.559C52.8945 31.3857 52.9129 31.1226 53.0879 30.9718C53.2629 30.8203 53.5267 30.8402 53.6783 31.0135L54.6555 32.1336C54.7409 32.2319 54.7761 32.3635 54.7493 32.4909L54.2795 34.7428C54.2385 34.9386 54.0643 35.0735 53.87 35.0735Z" fill="black"/>
<path d="M60.89 35.4291C60.8615 35.4291 60.833 35.4258 60.8045 35.4208C60.5776 35.3741 60.4327 35.1534 60.4796 34.9286L60.9075 32.879L60.066 31.9146C59.9144 31.7414 59.9328 31.4782 60.1078 31.3275C60.282 31.1759 60.5466 31.195 60.6982 31.3691L61.6754 32.4892C61.7617 32.5875 61.796 32.7191 61.7692 32.8465L61.2994 35.0985C61.2584 35.2942 61.0842 35.4291 60.89 35.4291Z" fill="black"/>
<path d="M55.2584 40.1579C55.065 40.1579 54.8908 40.023 54.849 39.8272C54.0693 36.1245 55.8722 34.2598 55.9493 34.1824C56.1117 34.0183 56.3764 34.0167 56.5413 34.1791C56.7055 34.3398 56.7071 34.603 56.5455 34.767C56.476 34.8387 54.9871 36.4227 55.6679 39.6565C55.7157 39.8822 55.57 40.1021 55.3439 40.1495C55.3162 40.1554 55.2869 40.1579 55.2584 40.1579Z" fill="black"/>
<path d="M59.0418 43.7207C58.794 43.7207 58.1994 43.6057 56.9576 42.2399C56.8144 42.0817 56.7624 41.8676 56.8185 41.6669C56.8772 41.4579 57.0438 41.2938 57.2624 41.228C60.2502 40.3394 60.6563 40.6426 60.8297 40.7733C60.9779 40.8841 61.2031 41.1539 61.0373 41.7069C60.8104 42.4656 59.8591 43.6682 59.1155 43.7182C59.0963 43.719 59.0711 43.7207 59.0418 43.7207ZM57.8159 41.9343C58.4875 42.628 58.9665 42.8778 59.0611 42.8862C59.1339 42.8778 59.4136 42.7163 59.7578 42.2899C60.0551 41.9201 60.2041 41.597 60.246 41.4312C60.0006 41.4521 59.2688 41.5187 57.8159 41.9343Z" fill="black"/>
<path d="M45.0884 67.4211C45.0457 67.4703 41.0463 71.7352 41.805 79.4021C41.5646 79.248 41.3327 79.0865 41.1015 78.9157C41.0354 78.8733 40.9776 78.8216 40.9115 78.7708C40.4199 71.158 44.4352 66.9015 44.4871 66.844C44.6487 66.6799 44.9083 66.6758 45.0817 66.829C45.2458 66.9906 45.25 67.2571 45.0884 67.4211Z" fill="#7772D3"/>
<path d="M209.039 47.4999C209.039 50.9478 208.587 54.2957 207.733 57.4771C203.312 74.0919 188.096 86.326 170 86.326C157.824 86.326 146.955 80.7877 139.795 72.1098C134.277 65.4055 130.961 56.8358 130.961 47.4999C130.961 26.0548 148.437 8.67383 170 8.67383C191.563 8.67383 209.039 26.0548 209.039 47.4999Z" fill="#EDDDD6"/>
<path d="M207.733 57.4772C203.311 74.0919 188.096 86.3261 170 86.3261C157.824 86.3261 146.955 80.7878 139.795 72.1098C151.217 58.21 163.535 56.7276 163.535 56.7276C163.535 56.7276 163.242 54.6289 163.535 54.0626C163.745 53.6628 164.515 53.2964 164.942 53.1215C165.11 53.0549 165.218 53.0132 165.218 53.0132C165.218 53.0132 165.838 52.905 166.809 52.7551C168.761 52.4469 172.127 51.9556 174.74 51.764C175.535 51.6974 176.264 51.6641 176.858 51.6724C177.503 51.6807 177.997 51.739 178.265 51.864C178.592 52.0139 178.968 53.0132 178.968 53.0132C178.968 53.0132 183.8 52.272 190.474 53.0132C193.28 53.3297 200.255 54.6123 207.733 57.4772Z" fill="#7C6053"/>
<path d="M163.397 35.6881C163.397 35.6881 156.571 33.5094 156.534 38.613C156.491 44.526 163.535 43.9263 163.535 43.9263L163.397 35.6881Z" fill="#F27E64"/>
<path d="M160.586 41.2963C160.455 41.2963 160.326 41.2355 160.245 41.1222L157.704 37.5903C157.569 37.4029 157.612 37.143 157.801 37.0089C157.99 36.8757 158.251 36.9182 158.385 37.1056L160.927 40.6375C161.062 40.8249 161.018 41.0848 160.83 41.2189C160.756 41.2705 160.671 41.2963 160.586 41.2963Z" fill="black"/>
<path d="M157.932 40.4127C157.721 40.4127 157.54 40.2553 157.516 40.0421C157.491 39.8139 157.657 39.6082 157.886 39.5823L159.756 39.3775C159.987 39.3517 160.192 39.5174 160.218 39.7456C160.243 39.9738 160.078 40.1795 159.848 40.2053L157.978 40.4102C157.962 40.4118 157.947 40.4127 157.932 40.4127Z" fill="black"/>
<path d="M176.54 48.5168L177.238 55.3676C177.238 55.3676 174.71 57.0399 171.389 57.4047C166.905 57.8977 165.141 55.3884 165.141 55.3884L164.42 47.3475L176.54 48.5168Z" fill="#F27E64"/>
<path d="M176.538 48.5068C176.538 48.5068 174.907 54.2566 169.737 53.9718C165.569 53.7419 163.851 48.0554 163.851 48.0554L176.538 48.5068Z" fill="black"/>
<path d="M160.784 30.2731C160.784 30.2731 159.082 43.0886 163.217 48.3112C167.652 53.9111 173.726 51.5533 175.895 49.5504C178.82 46.8487 179.153 43.4458 179.153 43.4458C179.153 43.4458 183.565 43.9014 184.679 40.2545C185.85 36.4235 182.874 33.696 180.691 33.7218C178.508 33.7468 178.292 34.1624 178.292 34.1624L178.558 30.1624C178.556 30.1624 164.021 16.8256 160.784 30.2731Z" fill="#F27E64"/>
<path d="M179.499 39.8122C179.394 39.8122 179.288 39.773 179.207 39.6947C179.041 39.5348 179.036 39.2717 179.197 39.1059L182.272 35.9445C182.433 35.7796 182.698 35.7755 182.864 35.9345C183.03 36.0944 183.035 36.3576 182.874 36.5233L179.799 39.6847C179.717 39.7705 179.608 39.8122 179.499 39.8122Z" fill="black"/>
<path d="M182.635 40.0512C182.56 40.0512 182.484 40.0312 182.415 39.9895L180.304 38.697C180.107 38.5763 180.046 38.3197 180.167 38.124C180.287 37.9283 180.545 37.8659 180.743 37.9874L182.854 39.28C183.051 39.4007 183.112 39.6572 182.99 39.853C182.913 39.9804 182.775 40.0512 182.635 40.0512Z" fill="black"/>
<path d="M172.656 36.9506C172.432 36.9506 172.246 36.7732 172.238 36.5483L172.165 34.4254C172.156 34.1956 172.338 34.0032 172.568 33.9949C172.799 33.9707 172.993 34.1673 173.001 34.3963L173.075 36.5191C173.083 36.749 172.902 36.9414 172.671 36.9497C172.666 36.9506 172.661 36.9506 172.656 36.9506Z" fill="black"/>
<path d="M164.49 37.2613C164.265 37.2613 164.08 37.0847 164.072 36.859L163.998 34.7361C163.99 34.5063 164.171 34.3139 164.402 34.3056C164.637 34.2939 164.827 34.4771 164.835 34.707L164.909 36.8299C164.917 37.0597 164.736 37.2521 164.505 37.2604C164.499 37.2613 164.494 37.2613 164.49 37.2613Z" fill="black"/>
<path d="M168.766 42.5138C168.585 42.5138 168.418 42.3964 168.365 42.2157C167.389 38.9385 168.206 36.1286 168.241 36.0112C168.308 35.7913 168.54 35.6639 168.761 35.7313C168.983 35.7963 169.11 36.0278 169.045 36.2485C169.037 36.2752 168.265 38.9485 169.168 41.9792C169.233 42.1999 169.106 42.4314 168.885 42.4972C168.844 42.5088 168.805 42.5138 168.766 42.5138Z" fill="black"/>
<path d="M163.038 32.9289C162.934 32.9289 162.83 32.8906 162.749 32.814C162.581 32.6549 162.576 32.3917 162.735 32.2252C163.585 31.3399 165.121 31.2108 165.186 31.2058C165.418 31.19 165.617 31.359 165.635 31.5881C165.654 31.8171 165.481 32.0178 165.251 32.0361C165.239 32.037 163.967 32.1469 163.34 32.7998C163.258 32.8856 163.148 32.9289 163.038 32.9289Z" fill="black"/>
<path d="M173.531 32.7557C173.459 32.7557 173.387 32.7374 173.321 32.6991C172.537 32.2444 171.285 32.4892 171.272 32.4917C171.045 32.5358 170.825 32.3926 170.778 32.1669C170.732 31.9412 170.878 31.7222 171.104 31.6755C171.168 31.6631 172.68 31.3624 173.743 31.9795C173.943 32.0953 174.01 32.3501 173.894 32.5483C173.816 32.6816 173.675 32.7557 173.531 32.7557Z" fill="black"/>
<path d="M179.292 34.0907C179.292 34.0907 178.294 38.0866 177.774 37.975C177.255 37.8642 177.532 31.6822 178.974 31.2999C180.417 30.9176 179.292 34.0907 179.292 34.0907Z" fill="black"/>
<path d="M169.393 46.1358C169.169 46.1358 168.985 45.96 168.975 45.736C168.966 45.507 169.146 45.3129 169.376 45.3029C169.463 45.2996 171.51 45.1913 172.308 43.4474C172.404 43.2384 172.653 43.1459 172.862 43.2409C173.072 43.3358 173.165 43.5832 173.07 43.7922C172.055 46.01 169.516 46.1308 169.409 46.1349C169.404 46.1358 169.398 46.1358 169.393 46.1358Z" fill="black"/>
<path d="M178.621 33.5751C178.621 33.5751 174.224 33.4002 171.187 31.269C168.623 29.4693 167.544 26.786 167.544 26.786C167.544 26.786 165.65 26.6277 163.037 28.3875C160.424 30.1472 160.436 35.2299 160.436 35.2299C160.436 35.2299 155.097 26.8484 157.326 23.7037C159.555 20.559 163.535 22.9175 163.535 22.9175C163.535 22.9175 162.602 17.3268 170.521 19.1615C178.439 20.9962 180.523 27.6346 180.523 27.6346C180.523 27.6346 183.182 27.2848 183.622 29.7308C184.061 32.1768 183.163 34.7219 183.163 34.7219C183.163 34.7219 181.953 33.6759 180.196 34.4113C178.439 35.1467 178.439 35.1467 178.439 35.1467L178.621 33.5751Z" fill="black"/>
<path d="M165.218 53.0165C165.218 53.0165 166.741 54.4523 170.263 54.5398C173.785 54.6272 176.874 51.7964 176.874 51.7964L179.143 55.9372L173.532 59.3443L164.128 58.5581V54.3649L165.218 53.0165Z" fill="#7C6053"/>
<path d="M169.103 59.7707C165.297 59.7707 163.22 57.0032 163.196 56.9691C163.061 56.7833 163.102 56.5235 163.288 56.3886C163.474 56.2528 163.736 56.2936 163.873 56.4785C163.981 56.6243 166.571 60.0472 171.411 58.5781C171.634 58.5114 171.867 58.6355 171.934 58.8554C172.001 59.0753 171.876 59.3076 171.655 59.3751C170.734 59.6549 169.883 59.7707 169.103 59.7707Z" fill="white"/>
</svg>
